<svg width="0" height="0" class="hidden">
  <symbol id="video-icon" viewBox="0 0 24 24">
    <path d="M15 8v8H5V8h10m1-2H4c-.55 0-1 .45-1 1v10c0 .55.45 1 1 1h12c.55 0 1-.45 1-1v-3.5l4 4v-11l-4 4V7c0-.55-.45-1-1-1z"/>
  </symbol>
  
  <symbol id="refresh-icon" viewBox="0 0 24 24">
    <path d="M17.65 6.35A7.958 7.958 0 0012 4c-4.42 0-7.99 3.58-7.99 8s3.57 8 7.99 8c3.73 0 6.84-2.55 7.73-6h-2.08c-.82 2.33-3.04 4-5.65 4-3.31 0-6-2.69-6-6s2.69-6 6-6c1.66 0 3.14.69 4.22 1.78L13 11h7V4l-2.35 2.35z"/>
  </symbol>
  
  <symbol id="mobile-icon" viewBox="0 0 24 24">
    <path d="M17 1.01L7 1c-1.1 0-2 .9-2 2v18c0 1.1.9 2 2 2h10c1.1 0 2-.9 2-2V3c0-1.1-.9-1.99-2-1.99zM17 19H7V5h10v14z"/>
  </symbol>
  
  <symbol id="brain-icon" viewBox="0 0 24 24">
    <path d="M9 21c0 .55.45 1 1 1h4c.55 0 1-.45 1-1v-1H9v1zm3-19C8.14 2 5 5.14 5 9c0 2.38 1.19 4.47 3 5.74V17c0 .55.45 1 1 1h6c.55 0 1-.45 1-1v-2.26c1.81-1.27 3-3.36 3-5.74 0-3.86-3.14-7-7-7zm2.85 11.1l-.85.6V16h-4v-2.3l-.85-.6A4.997 4.997 0 017 9c0-2.76 2.24-5 5-5s5 2.24 5 5c0 1.63-.8 3.16-2.15 4.1z"/>
  </symbol>
  
  <symbol id="search-icon" viewBox="0 0 24 24">
    <path d="M15.5 14h-.79l-.28-.27A6.471 6.471 0 0016 9.5 6.5 6.5 0 109.5 16c1.61 0 3.09-.59 4.23-1.57l.27.28v.79l5 4.99L20.49 19l-4.99-5zm-6 0C7.01 14 5 11.99 5 9.5S7.01 5 9.5 5 14 7.01 14 9.5 11.99 14 9.5 14z"/>
  </symbol>
  
  <symbol id="attach-icon" viewBox="0 0 24 24">
    <path d="M16.5 6v11.5c0 2.21-1.79 4-4 4s-4-1.79-4-4V5a2.5 2.5 0 015 0v10.5c0 .55-.45 1-1 1s-1-.45-1-1V6H10v9.5a2.5 2.5 0 005 0V5c0-2.21-1.79-4-4-4S7 2.79 7 5v12.5c0 3.04 2.46 5.5 5.5 5.5s5.5-2.46 5.5-5.5V6h-1.5z"/>
  </symbol>
  
  <symbol id="send-icon" viewBox="0 0 24 24">
    <path d="M3.4 20.4l17.45-7.48a1 1 0 000-1.84L3.4 3.6a.993.993 0 00-1.39.91L2 9.12c0 .5.37.93.87.99L17 12 2.87 13.88c-.5.07-.87.5-.87 1l.01 4.61c0 .71.73 1.2 1.39.91z"/>
  </symbol>
</svg> 