<svg width="40" height="40" viewBox="0 0 40 40" fill="none" xmlns="http://www.w3.org/2000/svg">
    <path d="M20 5C11.7157 5 5 11.7157 5 20C5 28.2843 11.7157 35 20 35C28.2843 35 35 28.2843 35 20C35 11.7157 28.2843 5 20 5Z" fill="#4F46E5"/>
    <path d="M26 16C26 17.1046 25.1046 18 24 18C22.8954 18 22 17.1046 22 16C22 14.8954 22.8954 14 24 14C25.1046 14 26 14.8954 26 16Z" fill="white"/>
    <path d="M20 28C23.866 28 27 24.866 27 21C27 17.134 23.866 14 20 14C16.134 14 13 17.134 13 21C13 24.866 16.134 28 20 28Z" fill="white"/>
    <path d="M18 19C18 20.1046 17.1046 21 16 21C14.8954 21 14 20.1046 14 19C14 17.8954 14.8954 17 16 17C17.1046 17 18 17.8954 18 19Z" fill="#4F46E5"/>
</svg> 